<svg width="20" height="20" viewBox="0 0 20 20" fill="none" xmlns="http://www.w3.org/2000/svg">
<g id="&#240;&#159;&#166;&#134; icon &#34;heart&#34;">
<path id="Vector" d="M5 0C3.625 0 2.4 0.657168 1.475 1.68578C0.575 2.71439 0 4.11444 0 5.71451C0 7.28599 0.575 8.68605 1.475 9.74323L10 19.4865L18.525 9.74323C19.425 8.71462 20 7.31457 20 5.71451C20 4.14302 19.425 2.74296 18.525 1.68578C17.625 0.657168 16.4 0 15 0C13.625 0 12.4 0.657168 11.475 1.68578C10.575 2.71439 10 4.11444 10 5.71451C10 4.14302 9.425 2.74296 8.525 1.68578C7.625 0.657168 6.4 0 5 0Z" fill="#D11A1A"/>
</g>
</svg>
